<?xml version="1.0" encoding="UTF-8" standalone="no"?>
<!DOCTYPE svg PUBLIC "-//W3C//DTD SVG 1.1//EN"
 "http://www.w3.org/Graphics/SVG/1.1/DTD/svg11.dtd">
<!-- Generated by graphviz version 2.40.1 (20161225.0304)
 -->
<!-- Title: state transitions Pages: 1 -->
<svg width="327pt" height="270pt"
 viewBox="0.00 0.00 327.00 270.00" xmlns="http://www.w3.org/2000/svg" xmlns:xlink="http://www.w3.org/1999/xlink">
<g id="graph0" class="graph" transform="scale(1 1) rotate(0) translate(4 266)">
<title>state transitions</title>
<polygon fill="#ffffff" stroke="transparent" points="-4,4 -4,-266 323,-266 323,4 -4,4"/>
<g id="clust1" class="cluster state regular">
<title>cluster_next_state</title>
<path fill="none" stroke="#000000" stroke-width="2" d="M20,-8C20,-8 299,-8 299,-8 305,-8 311,-14 311,-20 311,-20 311,-242 311,-242 311,-248 305,-254 299,-254 299,-254 20,-254 20,-254 14,-254 8,-248 8,-242 8,-242 8,-20 8,-20 8,-14 14,-8 20,-8"/>
<text text-anchor="start" x="132.3208" y="-235.2" font-family="Helvetica,sans-Serif" font-size="12.00" fill="#000000">next_state</text>
</g>
<!-- next_state -->
<!-- red_state -->
<g id="node2" class="node state regular">
<title>red_state</title>
<polygon fill="#ffffff" fill-opacity="0.003922" stroke="transparent" stroke-width="2" points="118,-216 46,-216 46,-180 118,-180 118,-216"/>
<text text-anchor="start" x="56.9908" y="-194.2" font-family="Helvetica,sans-Serif" font-size="12.00" fill="#000000">red_state</text>
<path fill="none" stroke="#000000" stroke-width="2" d="M58.3333,-181C58.3333,-181 105.6667,-181 105.6667,-181 111.3333,-181 117,-186.6667 117,-192.3333 117,-192.3333 117,-203.6667 117,-203.6667 117,-209.3333 111.3333,-215 105.6667,-215 105.6667,-215 58.3333,-215 58.3333,-215 52.6667,-215 47,-209.3333 47,-203.6667 47,-203.6667 47,-192.3333 47,-192.3333 47,-186.6667 52.6667,-181 58.3333,-181"/>
</g>
<!-- red_state&#45;&gt;red_state -->
<g id="edge2" class="edge transition">
<title>red_state&#45;&gt;red_state</title>
<path fill="none" stroke="#000000" d="M118.25,-202.875C130.3333,-202.875 140,-201.25 140,-198 140,-195.7656 135.431,-194.2993 128.6489,-193.6011"/>
<polygon fill="#000000" stroke="#000000" points="128.3996,-190.0861 118.25,-193.125 128.0794,-197.0788 128.3996,-190.0861"/>
<text text-anchor="start" x="140" y="-195" font-family="Helvetica,sans-Serif" font-size="10.00" fill="#000000">not (enable =&#39;1&#39;) &#160;&#160;</text>
</g>
<!-- yellow_state -->
<g id="node3" class="node state regular">
<title>yellow_state</title>
<polygon fill="#ffffff" fill-opacity="0.003922" stroke="transparent" stroke-width="2" points="104,-134 16,-134 16,-98 104,-98 104,-134"/>
<text text-anchor="start" x="26.994" y="-112.2" font-family="Helvetica,sans-Serif" font-size="12.00" fill="#000000">yellow_state</text>
<path fill="none" stroke="#000000" stroke-width="2" d="M28.3333,-99C28.3333,-99 91.6667,-99 91.6667,-99 97.3333,-99 103,-104.6667 103,-110.3333 103,-110.3333 103,-121.6667 103,-121.6667 103,-127.3333 97.3333,-133 91.6667,-133 91.6667,-133 28.3333,-133 28.3333,-133 22.6667,-133 17,-127.3333 17,-121.6667 17,-121.6667 17,-110.3333 17,-110.3333 17,-104.6667 22.6667,-99 28.3333,-99"/>
</g>
<!-- red_state&#45;&gt;yellow_state -->
<g id="edge1" class="edge transition">
<title>red_state&#45;&gt;yellow_state</title>
<path fill="none" stroke="#000000" d="M77.1175,-179.8015C74.2977,-169.2915 70.6915,-155.8503 67.5169,-144.0177"/>
<polygon fill="#000000" stroke="#000000" points="70.8407,-142.899 64.8689,-134.1476 64.0798,-144.713 70.8407,-142.899"/>
<text text-anchor="start" x="72" y="-154" font-family="Helvetica,sans-Serif" font-size="10.00" fill="#000000">enable =&#39;1&#39; &#160;&#160;</text>
</g>
<!-- yellow_state&#45;&gt;yellow_state -->
<g id="edge4" class="edge transition">
<title>yellow_state&#45;&gt;yellow_state</title>
<path fill="none" stroke="#000000" d="M104.1067,-120.8509C116.4925,-120.6385 126,-119.0215 126,-116 126,-113.8755 121.2996,-112.4454 114.2033,-111.7097"/>
<polygon fill="#000000" stroke="#000000" points="114.2854,-108.2089 104.1067,-111.1491 113.8973,-115.1982 114.2854,-108.2089"/>
<text text-anchor="start" x="126" y="-113" font-family="Helvetica,sans-Serif" font-size="10.00" fill="#000000">not (enable =&#39;1&#39;) &#160;&#160;</text>
</g>
<!-- green_state -->
<g id="node4" class="node state regular">
<title>green_state</title>
<polygon fill="#ffffff" fill-opacity="0.003922" stroke="transparent" stroke-width="2" points="153.5,-52 68.5,-52 68.5,-16 153.5,-16 153.5,-52"/>
<text text-anchor="start" x="79.82" y="-30.2" font-family="Helvetica,sans-Serif" font-size="12.00" fill="#000000">green_state</text>
<path fill="none" stroke="#000000" stroke-width="2" d="M80.8333,-17C80.8333,-17 141.1667,-17 141.1667,-17 146.8333,-17 152.5,-22.6667 152.5,-28.3333 152.5,-28.3333 152.5,-39.6667 152.5,-39.6667 152.5,-45.3333 146.8333,-51 141.1667,-51 141.1667,-51 80.8333,-51 80.8333,-51 75.1667,-51 69.5,-45.3333 69.5,-39.6667 69.5,-39.6667 69.5,-28.3333 69.5,-28.3333 69.5,-22.6667 75.1667,-17 80.8333,-17"/>
</g>
<!-- yellow_state&#45;&gt;green_state -->
<g id="edge3" class="edge transition">
<title>yellow_state&#45;&gt;green_state</title>
<path fill="none" stroke="#000000" d="M71.3186,-97.8015C78.0534,-86.973 86.7234,-73.033 94.2405,-60.9466"/>
<polygon fill="#000000" stroke="#000000" points="97.4037,-62.4877 99.7131,-52.1476 91.4596,-58.7907 97.4037,-62.4877"/>
<text text-anchor="start" x="88" y="-72" font-family="Helvetica,sans-Serif" font-size="10.00" fill="#000000">enable =&#39;1&#39; &#160;&#160;</text>
</g>
<!-- green_state&#45;&gt;red_state -->
<g id="edge5" class="edge transition">
<title>green_state&#45;&gt;red_state</title>
<path fill="none" stroke="#000000" d="M153.7148,-38.7057C193.2656,-44.2876 246,-55.4044 246,-75 246,-157 246,-157 246,-157 246,-181.3856 176.8934,-191.3886 128.3998,-195.4059"/>
<polygon fill="#000000" stroke="#000000" points="128.099,-191.9186 118.3969,-196.1753 128.6359,-198.898 128.099,-191.9186"/>
<text text-anchor="start" x="246" y="-113" font-family="Helvetica,sans-Serif" font-size="10.00" fill="#000000">enable =&#39;1&#39; &#160;&#160;</text>
</g>
<!-- green_state&#45;&gt;green_state -->
<g id="edge6" class="edge transition">
<title>green_state&#45;&gt;green_state</title>
<path fill="none" stroke="#000000" d="M153.7986,-38.856C166.0518,-38.6655 175.5,-37.0469 175.5,-34 175.5,-31.8577 170.8289,-30.4214 163.7961,-29.6913"/>
<polygon fill="#000000" stroke="#000000" points="163.9749,-26.1959 153.7986,-29.144 163.5923,-33.1855 163.9749,-26.1959"/>
<text text-anchor="start" x="175.5" y="-31" font-family="Helvetica,sans-Serif" font-size="10.00" fill="#000000">not (enable =&#39;1&#39;) &#160;&#160;</text>
</g>
</g>
</svg>
